<svg xmlns="http://www.w3.org/2000/svg" viewBox="0 0 1497 921" preserveAspectRatio="xMidYMid" width="1497" height="921" xmlns:xlink="http://www.w3.org/1999/xlink" style="shape-rendering:auto;display:block;background-position-x:0%;background-position-y:0%;background-size:auto;background-origin:padding-box;background-clip:border-box;background:scroll rgb(210, 211, 212) none  repeat;width:1497px;height:921px;;animation:none"><g><linearGradient id="lg-o578w6yh81n" x1="0" x2="1" y1="0" y2="0"><stop stop-color="#fdf5e6" offset="0"></stop>

  
<stop stop-color="#fff1d6" offset="1"></stop></linearGradient>
<path d="M 0 0 L 0 623.23 Q 149.7 593.98 299.4 573.97 T 598.8 439.12 T 898.2 397.13 T 1197.6 460.28 T 1497 364.96 L 1497 0 Z" fill="url(#lg-o578w6yh81n)" opacity="0.4" style="fill:url('#lg-o578w6yh81n');opacity:0.4;;animation:none"></path>
<path d="M 0 0 L 0 575.803 Q 149.7 552.16 299.4 527.336 T 598.8 460.491 T 898.2 376.34 T 1197.6 300.822 T 1497 301.325 L 1497 0 Z" fill="url(#lg-o578w6yh81n)" opacity="0.4" style="fill:url('#lg-o578w6yh81n');opacity:0.4;;animation:none"></path>
<path d="M 0 0 L 0 590.406 Q 149.7 642.14 299.4 617.92 T 598.8 412.431 T 898.2 449.68 T 1197.6 348.693 T 1497 284.322 L 1497 0 Z" fill="url(#lg-o578w6yh81n)" opacity="0.4" style="fill:url('#lg-o578w6yh81n');opacity:0.4;;animation:none"></path>
<path d="M 0 0 L 0 630.033 Q 149.7 539.599 299.4 514.878 T 598.8 537.922 T 898.2 419.226 T 1197.6 456.621 T 1497 359.587 L 1497 0 Z" fill="url(#lg-o578w6yh81n)" opacity="0.4" style="fill:url('#lg-o578w6yh81n');opacity:0.4;;animation:none"></path>
<path d="M 0 0 L 0 659.373 Q 149.7 559.889 299.4 538.544 T 598.8 453.597 T 898.2 466.046 T 1197.6 293.614 T 1497 230.785 L 1497 0 Z" fill="url(#lg-o578w6yh81n)" opacity="0.4" style="fill:url('#lg-o578w6yh81n');opacity:0.4;;animation:none"></path>
<g></g></g><!-- [ldio] generated by https://loading.io --></svg>